<svg width="48" height="48" viewBox="0 0 48 48" fill="none" xmlns="http://www.w3.org/2000/svg" role="img" aria-label="Jack">
  <defs>
    <linearGradient id="jackFlame" x1="24" y1="3" x2="24" y2="45" gradientUnits="userSpaceOnUse">
      <stop stop-color="#FF9A3D"/>
      <stop offset="1" stop-color="#FF6400"/>
    </linearGradient>
  </defs>
  <path d="M24 3.5c2.7 6.6 9.4 9.7 9.4 17.4 0 3.4-1.7 6.3-4.3 8.1 1.1-2.1 1-4.9-.8-7-.4 4.9-3.6 6.6-3.6 10.2 0 1.8 1.1 3.6 2.9 4.6-5.3.6-10.7-3-10.7-9.2 0-6.1 5.3-8.8 4.5-15.3 2.2 1.3 3.5 3.5 3.6 6C27 23.2 26.7 18.6 24 15.3c-.4-4.1.2-8.2 0-11.8Z" fill="url(#jackFlame)"/>
</svg>
